<svg xmlns="http://www.w3.org/2000/svg" version="1.1" xmlns:xlink="http://www.w3.org/1999/xlink" preserveAspectRatio="none" viewBox="0 0 1100 650">
  <defs>
    <g id="Graphic_shape_4_0_Layer0_0_FILL">
      <path fill="#999999" stroke="none" d="
M 528.7 139.05
Q 551.7 130.3 551.7 118.95 551.7 105.85 519.6 96.35 487.45 86.5 442.25 86.5 401.75 86.15 369.25 94.5 369.6 87.2 367.45 79.2 362.7 64.6 348.1 56.55 333.5 48.55 315.6 50 305.05 28.1 279.15 14.25 252.5 0.4 219.65 0 177.7 0 147.75 21.9 117.85 43.45 117.85 74.1 117.85 96 133.9 113.85
L 116.05 113.5
Q 67.85 113.5 34.3 119.7 0.35 125.55 0 134.65 0 147.05 63.1 154
L 63.1 155.45
Q 62.75 168.95 79.15 178.8 95.95 188.3 119.3 188.65 140.45 189.05 156.15 181.35 172.2 174.05 175.5 162.4 197.05 175.15 226.95 175.55 255.8 176.25 276.2 164.95 283.85 183.9 310.15 196.7 336.8 209.45 371.45 209.85 412.3 210.55 441.15 194.15 470.35 178.1 470.7 154.75
L 470.35 150
Q 505.7 147.45 528.7 139.05 Z" />
    </g>
  </defs>
  <g transform="matrix( -0.9406280517578125, 0, 0, 1.018768310546875, 1020,0) ">
    <g transform="matrix( -0.6638641357421875, 0, 0, 1, 1084.25,-71.45) ">
      <g transform="matrix( 1, 0, 0, 1, 0,400) ">
        <g transform="matrix( 1, 0, 0, 1, 0,0) ">
          <g transform="matrix( 1, 0, 0, 1, 0,0) ">
            <use xlink:href="#Graphic_shape_4_0_Layer0_0_FILL" />
          </g>
        </g>
      </g>
    </g>
    <g transform="matrix( -0.77032470703125, 0, 0, 1.306884765625, 519.7,-208.1) ">
      <g transform="matrix( 1, 0, 0, 1, 0,400) ">
        <g transform="matrix( 1, 0, 0, 1, 0,0) ">
          <g transform="matrix( 1, 0, 0, 1, 0,0) ">
            <use xlink:href="#Graphic_shape_4_0_Layer0_0_FILL" />
          </g>
        </g>
      </g>
    </g>
    <g transform="matrix( 0.416900634765625, 0, 0, 0.4161376953125, 20.05,108.25) ">
      <g transform="matrix( 1, 0, 0, 1, 0,400) ">
        <g transform="matrix( 1, 0, 0, 1, 0,0) ">
          <g transform="matrix( 1, 0, 0, 1, 0,0) ">
            <use xlink:href="#Graphic_shape_4_0_Layer0_0_FILL" />
          </g>
        </g>
      </g>
    </g>
    <g transform="matrix( -1.0882568359375, 0, 0, 1.6135406494140625, 918.65,0) ">
      <g transform="matrix( 1, 0, 0, 1, 0,0) ">
        <g transform="matrix( 1, 0, 0, 1, 0,0) ">
          <use xlink:href="#Graphic_shape_4_0_Layer0_0_FILL" />
        </g>
      </g>
    </g>
  </g>
</svg>